<?xml version="1.0" encoding="UTF-8"?>
<!DOCTYPE svg PUBLIC "-//W3C//DTD SVG 1.1//EN" "http://www.w3.org/Graphics/SVG/1.1/DTD/svg11.dtd">
<svg xmlns="http://www.w3.org/2000/svg" version="1.1" width="100px" height="100px" style="shape-rendering:geometricPrecision; text-rendering:geometricPrecision; image-rendering:optimizeQuality; fill-rule:evenodd; clip-rule:evenodd" xmlns:xlink="http://www.w3.org/1999/xlink">
<g><path style="opacity:0.895" fill="#000000" d="M 99.5,69.5 C 99.5,75.1667 99.5,80.8333 99.5,86.5C 98.5,86.5 97.5,86.5 96.5,86.5C 96.6659,81.4889 96.4993,76.4889 96,71.5C 91.5833,67.2675 87.5833,67.2675 84,71.5C 83.829,76.5329 83.329,81.5329 82.5,86.5C 81.914,86.2907 81.414,85.9574 81,85.5C 80.6667,80.5 80.3333,75.5 80,70.5C 79,69.5 78,68.5 77,67.5C 77.414,73.7477 77.5806,80.0811 77.5,86.5C 76.5,86.5 75.5,86.5 74.5,86.5C 74.6659,81.4889 74.4993,76.4889 74,71.5C 70.4211,68.7457 66.4211,66.7457 62,65.5C 60.5331,68.2664 58.6998,70.7664 56.5,73C 54.6133,73.1626 53.1133,72.3293 52,70.5C 51.6667,75.5 51.3333,80.5 51,85.5C 50,86.8333 49,86.8333 48,85.5C 47.6667,80.5 47.3333,75.5 47,70.5C 45.9805,71.6872 44.8139,72.6872 43.5,73.5C 40.6255,71.4231 38.4589,68.7564 37,65.5C 32.5789,66.7457 28.5789,68.7457 25,71.5C 24.5007,76.4889 24.3341,81.4889 24.5,86.5C 23.5,86.5 22.5,86.5 21.5,86.5C 21.1934,80.9066 21.5268,75.4066 22.5,70C 22,69.5 21.5,69 21,68.5C 17,73.8333 13,73.8333 9,68.5C 6.82796,69.5853 4.82796,70.9186 3,72.5C 2.50085,77.1548 2.33418,81.8215 2.5,86.5C 1.5,86.5 0.5,86.5 -0.5,86.5C -0.5,81.1667 -0.5,75.8333 -0.5,70.5C 1.4714,69.1769 3.4714,67.8435 5.5,66.5C 3.5,65.1667 1.83333,63.5 0.5,61.5C 2.02,56.2938 2.85334,50.9605 3,45.5C 7.42024,36.1765 14.2536,34.0098 23.5,39C 24.2106,40.2547 25.044,41.4214 26,42.5C 27.0358,48.8586 28.2024,55.1919 29.5,61.5C 25.6467,65.7802 26.6467,66.6135 32.5,64C 37.4581,62.0621 39.2914,58.5621 38,53.5C 35.3195,51.4733 33.6528,48.8066 33,45.5C 32.5663,39.758 31.733,34.0914 30.5,28.5C 30.1237,20.4071 33.7903,15.2404 41.5,13C 50.4117,12.1837 59.245,12.3503 68,13.5C 68.8946,24.6127 68.2279,35.6127 66,46.5C 56.9902,58.4007 60.1568,64.7341 75.5,65.5C 72.6592,59.2198 70.6592,52.5531 69.5,45.5C 69.752,41.4172 71.752,38.5839 75.5,37C 81.8246,36.5005 88.1579,36.3338 94.5,36.5C 94.6374,43.2137 94.1374,49.8804 93,56.5C 91.9986,59.1732 90.4986,61.5065 88.5,63.5C 92.3273,65.117 95.994,67.117 99.5,69.5 Z M 44.5,15.5 C 51.5,15.5 58.5,15.5 65.5,15.5C 65.9492,26.3604 64.7826,37.027 62,47.5C 57.0667,54.4912 50.5667,56.3245 42.5,53C 39.5665,50.7357 37.3999,47.9024 36,44.5C 35.6397,39.0894 34.8064,33.7561 33.5,28.5C 34.0194,21.3259 37.6861,16.9925 44.5,15.5 Z M 12.5,39.5 C 20.4726,38.9741 24.3059,42.6408 24,50.5C 19.0385,45.11 13.7051,44.4434 8,48.5C 7.3987,49.9653 7.8987,50.9653 9.5,51.5C 13.88,48.2736 18.0467,48.9403 22,53.5C 22.2816,58.2307 19.9483,60.8974 15,61.5C 12.8606,60.7636 10.8606,59.7636 9,58.5C 7.98031,55.4011 6.81364,52.4011 5.5,49.5C 5.90412,44.6538 8.23746,41.3205 12.5,39.5 Z M 76.5,39.5 C 81.5,39.5 86.5,39.5 91.5,39.5C 91.6433,45.6393 90.81,51.6393 89,57.5C 83.6004,62.8242 78.9338,62.1575 75,55.5C 74.5466,52.1596 74.0466,48.8262 73.5,45.5C 73.6284,43.0452 74.6284,41.0452 76.5,39.5 Z M 41.5,56.5 C 46.6719,59.0858 51.8386,59.0858 57,56.5C 57.1667,56.8333 57.3333,57.1667 57.5,57.5C 53.5636,63.6784 48.897,64.5117 43.5,60C 42.1772,59.1841 41.5106,58.0174 41.5,56.5 Z M 24.5,58.5 C 25.8053,61.3797 24.8053,62.8797 21.5,63C 23.1412,61.871 24.1412,60.371 24.5,58.5 Z M 4.5,59.5 C 7.0014,59.8256 8.16807,61.1589 8,63.5C 5.92857,62.8971 4.76191,61.5638 4.5,59.5 Z M 39.5,62.5 C 42.1398,62.954 44.4732,64.1207 46.5,66C 45.646,67.0217 44.646,67.8551 43.5,68.5C 41.6631,66.8236 40.3298,64.8236 39.5,62.5 Z M 56.5,62.5 C 57.675,62.281 58.675,62.6143 59.5,63.5C 58.396,65.3885 57.0627,67.0552 55.5,68.5C 54.354,67.8551 53.354,67.0217 52.5,66C 54.3237,65.34 55.657,64.1733 56.5,62.5 Z M 12.5,64.5 C 14.604,64.2011 16.604,64.5344 18.5,65.5C 16.4253,69.2468 14.0919,69.4135 11.5,66C 12.056,65.6174 12.3893,65.1174 12.5,64.5 Z M 79.5,65.5 C 81.2884,64.3775 83.2884,64.2109 85.5,65C 83.6627,68.1019 81.6627,68.2686 79.5,65.5 Z"/></g>
<g><path style="opacity:0.787" fill="#000000" d="M 43.5,25.5 C 47.8766,25.5775 52.2099,26.0775 56.5,27C 59.0758,27.7822 61.0758,29.2822 62.5,31.5C 61.7579,32.2868 60.9246,32.9535 60,33.5C 58.2002,31.683 56.0336,30.5163 53.5,30C 49.1794,29.501 44.8461,29.3343 40.5,29.5C 40.8841,31.6648 40.2174,33.3315 38.5,34.5C 36.5539,32.9563 36.0539,30.9563 37,28.5C 39.0454,27.0735 41.2121,26.0735 43.5,25.5 Z"/></g>
<g><path style="opacity:0.799" fill="#000000" d="M 76.5,43.5 C 79.8394,43.8897 83.1727,44.3897 86.5,45C 87.9733,45.7096 88.6399,46.8762 88.5,48.5C 84.5101,48.0013 80.5101,47.5013 76.5,47C 75.8288,46.0138 75.8288,44.8471 76.5,43.5 Z"/></g>
<g><path style="opacity:0.95" fill="#000000" d="M 90.5,73.5 C 91.4959,73.4142 92.3292,73.7476 93,74.5C 93.6667,78.1667 93.6667,81.8333 93,85.5C 92.586,85.9574 92.086,86.2907 91.5,86.5C 90.5078,82.2172 90.1744,77.8839 90.5,73.5 Z"/></g>
<g><path style="opacity:0.951" fill="#000000" d="M 6.5,75.5 C 7.78683,76.8714 8.4535,78.7047 8.5,81C 8.16667,82.8333 7.83333,84.6667 7.5,86.5C 6.91395,86.2907 6.41395,85.9574 6,85.5C 5.25335,82.0764 5.42002,78.7431 6.5,75.5 Z"/></g>
<g><path style="opacity:0.894" fill="#000000" d="M 31.5,76.5 C 32.7773,77.6936 33.4439,79.3603 33.5,81.5C 33.1667,83.1667 32.8333,84.8333 32.5,86.5C 31.914,86.2907 31.414,85.9574 31,85.5C 30.2642,82.408 30.4309,79.408 31.5,76.5 Z"/></g>
<g><path style="opacity:0.904" fill="#000000" d="M 65.5,76.5 C 66.4959,76.4142 67.3292,76.7476 68,77.5C 68.6667,80.1667 68.6667,82.8333 68,85.5C 67.586,85.9574 67.086,86.2907 66.5,86.5C 65.513,83.2317 65.1796,79.8984 65.5,76.5 Z"/></g>
</svg>
